<svg id="visual" viewBox="0 0 3000 1900" width="3000" height="1900" xmlns="http://www.w3.org/2000/svg" xmlns:xlink="http://www.w3.org/1999/xlink" version="1.1"><g transform="translate(7.720433035148233 -126.23472968305532)"><path d="M360.3 -525.5C481.3 -482.9 603.6 -407.2 691.2 -292.9C778.9 -178.6 831.9 -25.7 767 78.2C702.1 182 519.3 236.8 427.6 405.5C335.9 574.2 335.2 856.8 234.2 961.1C133.3 1065.4 -68 991.3 -259.8 919.3C-451.6 847.3 -633.9 777.3 -719 643.1C-804.1 508.9 -792.1 310.5 -797.9 127.8C-803.8 -54.8 -827.6 -221.8 -792.6 -388.3C-757.6 -554.8 -663.7 -720.7 -521.8 -753.8C-379.9 -786.8 -189.9 -686.9 -35.1 -632.2C119.7 -577.5 239.3 -568.1 360.3 -525.5" fill="#447dff"></path></g></svg>