<svg id="visual" viewBox="0 0 3000 1900" width="3000" height="1900" xmlns="http://www.w3.org/2000/svg" xmlns:xlink="http://www.w3.org/1999/xlink" version="1.1"><rect x="0" y="0" width="3000" height="1900" fill="#001220"></rect><defs><linearGradient id="grad1_0" x1="36.7%" y1="100%" x2="100%" y2="0%"><stop offset="18.42105263157895%" stop-color="#fbae3c" stop-opacity="1"></stop><stop offset="81.57894736842105%" stop-color="#fbae3c" stop-opacity="1"></stop></linearGradient></defs><defs><linearGradient id="grad1_1" x1="36.7%" y1="100%" x2="100%" y2="0%"><stop offset="18.42105263157895%" stop-color="#fbae3c" stop-opacity="1"></stop><stop offset="81.57894736842105%" stop-color="#f17c53" stop-opacity="1"></stop></linearGradient></defs><defs><linearGradient id="grad1_2" x1="36.7%" y1="100%" x2="100%" y2="0%"><stop offset="18.42105263157895%" stop-color="#cc5867" stop-opacity="1"></stop><stop offset="81.57894736842105%" stop-color="#f17c53" stop-opacity="1"></stop></linearGradient></defs><defs><linearGradient id="grad1_3" x1="36.7%" y1="100%" x2="100%" y2="0%"><stop offset="18.42105263157895%" stop-color="#cc5867" stop-opacity="1"></stop><stop offset="81.57894736842105%" stop-color="#96446e" stop-opacity="1"></stop></linearGradient></defs><defs><linearGradient id="grad1_4" x1="36.7%" y1="100%" x2="100%" y2="0%"><stop offset="18.42105263157895%" stop-color="#593762" stop-opacity="1"></stop><stop offset="81.57894736842105%" stop-color="#96446e" stop-opacity="1"></stop></linearGradient></defs><defs><linearGradient id="grad1_5" x1="36.7%" y1="100%" x2="100%" y2="0%"><stop offset="18.42105263157895%" stop-color="#593762" stop-opacity="1"></stop><stop offset="81.57894736842105%" stop-color="#232745" stop-opacity="1"></stop></linearGradient></defs><defs><linearGradient id="grad1_6" x1="36.7%" y1="100%" x2="100%" y2="0%"><stop offset="18.42105263157895%" stop-color="#001220" stop-opacity="1"></stop><stop offset="81.57894736842105%" stop-color="#232745" stop-opacity="1"></stop></linearGradient></defs><defs><linearGradient id="grad2_0" x1="0%" y1="100%" x2="63.3%" y2="0%"><stop offset="18.42105263157895%" stop-color="#fbae3c" stop-opacity="1"></stop><stop offset="81.57894736842105%" stop-color="#fbae3c" stop-opacity="1"></stop></linearGradient></defs><defs><linearGradient id="grad2_1" x1="0%" y1="100%" x2="63.3%" y2="0%"><stop offset="18.42105263157895%" stop-color="#f17c53" stop-opacity="1"></stop><stop offset="81.57894736842105%" stop-color="#fbae3c" stop-opacity="1"></stop></linearGradient></defs><defs><linearGradient id="grad2_2" x1="0%" y1="100%" x2="63.3%" y2="0%"><stop offset="18.42105263157895%" stop-color="#f17c53" stop-opacity="1"></stop><stop offset="81.57894736842105%" stop-color="#cc5867" stop-opacity="1"></stop></linearGradient></defs><defs><linearGradient id="grad2_3" x1="0%" y1="100%" x2="63.3%" y2="0%"><stop offset="18.42105263157895%" stop-color="#96446e" stop-opacity="1"></stop><stop offset="81.57894736842105%" stop-color="#cc5867" stop-opacity="1"></stop></linearGradient></defs><defs><linearGradient id="grad2_4" x1="0%" y1="100%" x2="63.3%" y2="0%"><stop offset="18.42105263157895%" stop-color="#96446e" stop-opacity="1"></stop><stop offset="81.57894736842105%" stop-color="#593762" stop-opacity="1"></stop></linearGradient></defs><defs><linearGradient id="grad2_5" x1="0%" y1="100%" x2="63.3%" y2="0%"><stop offset="18.42105263157895%" stop-color="#232745" stop-opacity="1"></stop><stop offset="81.57894736842105%" stop-color="#593762" stop-opacity="1"></stop></linearGradient></defs><defs><linearGradient id="grad2_6" x1="0%" y1="100%" x2="63.3%" y2="0%"><stop offset="18.42105263157895%" stop-color="#232745" stop-opacity="1"></stop><stop offset="81.57894736842105%" stop-color="#001220" stop-opacity="1"></stop></linearGradient></defs><g transform="translate(3000, 1900)"><path d="M-1242.9 0C-1172.6 -71.1 -1102.3 -142.2 -1062.2 -211.3C-1022 -280.4 -1012 -347.5 -989.5 -409.9C-966.9 -472.2 -931.9 -529.7 -921.3 -615.6C-910.6 -701.5 -924.3 -815.8 -878.8 -878.8C-833.4 -941.9 -728.8 -953.6 -639.5 -957C-550.1 -960.4 -476.1 -955.4 -414.4 -1000.6C-352.8 -1045.7 -303.6 -1141 -236.6 -1189.7C-169.6 -1238.4 -84.8 -1240.7 0 -1242.9L0 0Z" fill="#0f1d33"></path><path d="M-1065.3 0C-1005.1 -60.9 -944.9 -121.9 -910.4 -181.1C-876 -240.3 -867.4 -297.9 -848.1 -351.3C-828.8 -404.7 -798.8 -454 -789.7 -527.6C-780.5 -601.3 -792.3 -699.3 -753.3 -753.3C-714.3 -807.3 -624.7 -817.4 -548.1 -820.3C-471.5 -823.2 -408.1 -818.9 -355.2 -857.6C-302.4 -896.3 -260.3 -978 -202.8 -1019.7C-145.4 -1061.5 -72.7 -1063.4 0 -1065.3L0 0Z" fill="#3d3056"></path><path d="M-887.8 0C-837.6 -50.8 -787.4 -101.5 -758.7 -150.9C-730 -200.3 -722.9 -248.2 -706.8 -292.8C-690.7 -337.3 -665.7 -378.3 -658 -439.7C-650.4 -501.1 -660.2 -582.7 -627.7 -627.7C-595.3 -672.8 -520.6 -681.2 -456.8 -683.6C-393 -686 -340 -682.4 -296 -714.7C-252 -746.9 -216.9 -815 -169 -849.8C-121.2 -884.6 -60.6 -886.2 0 -887.8L0 0Z" fill="#773d6b"></path><path d="M-710.2 0C-670.1 -40.6 -629.9 -81.2 -607 -120.7C-584 -160.2 -578.3 -198.6 -565.4 -234.2C-552.5 -269.8 -532.5 -302.7 -526.4 -351.8C-520.3 -400.8 -528.2 -466.2 -502.2 -502.2C-476.2 -538.2 -416.5 -544.9 -365.4 -546.9C-314.4 -548.8 -272 -546 -236.8 -571.7C-201.6 -597.5 -173.5 -652 -135.2 -679.8C-96.9 -707.7 -48.5 -708.9 0 -710.2L0 0Z" fill="#b34c6d"></path><path d="M-532.7 0C-502.5 -30.5 -472.4 -60.9 -455.2 -90.5C-438 -120.2 -433.7 -148.9 -424.1 -175.7C-414.4 -202.4 -399.4 -227 -394.8 -263.8C-390.3 -300.6 -396.1 -349.6 -376.6 -376.6C-357.2 -403.7 -312.3 -408.7 -274.1 -410.2C-235.8 -411.6 -204 -409.5 -177.6 -428.8C-151.2 -448.2 -130.1 -489 -101.4 -509.9C-72.7 -530.8 -36.4 -531.7 0 -532.7L0 0Z" fill="#e1685e"></path><path d="M-355.1 0C-335 -20.3 -315 -40.6 -303.5 -60.4C-292 -80.1 -289.1 -99.3 -282.7 -117.1C-276.3 -134.9 -266.3 -151.3 -263.2 -175.9C-260.2 -200.4 -264.1 -233.1 -251.1 -251.1C-238.1 -269.1 -208.2 -272.5 -182.7 -273.4C-157.2 -274.4 -136 -273 -118.4 -285.9C-100.8 -298.8 -86.8 -326 -67.6 -339.9C-48.5 -353.8 -24.2 -354.5 0 -355.1L0 0Z" fill="#f99447"></path><path d="M-177.6 0C-167.5 -10.2 -157.5 -20.3 -151.7 -30.2C-146 -40.1 -144.6 -49.6 -141.4 -58.6C-138.1 -67.5 -133.1 -75.7 -131.6 -87.9C-130.1 -100.2 -132 -116.5 -125.5 -125.5C-119.1 -134.6 -104.1 -136.2 -91.4 -136.7C-78.6 -137.2 -68 -136.5 -59.2 -142.9C-50.4 -149.4 -43.4 -163 -33.8 -170C-24.2 -176.9 -12.1 -177.2 0 -177.6L0 0Z" fill="#fbae3c"></path></g><g transform="translate(0, 0)"><path d="M1242.9 0C1169.6 73.3 1096.4 146.6 1047.5 208.4C998.6 270.1 974.1 320.4 993.2 411.4C1012.2 502.4 1074.8 634.2 1033.4 690.5C992 746.8 846.6 727.5 776.4 776.4C706.2 825.3 711.1 942.3 663.4 992.8C615.6 1043.3 515.3 1027.3 438.9 1059.7C362.6 1092 310.1 1172.7 240.9 1211.3C171.8 1249.8 85.9 1246.4 0 1242.9L0 0Z" fill="#0f1d33"></path><path d="M1065.3 0C1002.5 62.8 939.7 125.6 897.8 178.6C855.9 231.5 835 274.6 851.3 352.6C867.6 430.6 921.3 543.6 885.8 591.9C850.3 640.1 725.7 623.6 665.5 665.5C605.3 707.4 609.5 807.6 568.6 850.9C527.7 894.3 441.7 880.6 376.2 908.3C310.8 936 265.8 1005.2 206.5 1038.2C147.2 1071.3 73.6 1068.3 0 1065.3L0 0Z" fill="#3d3056"></path><path d="M887.8 0C835.4 52.4 783.1 104.7 748.2 148.8C713.3 192.9 695.8 228.8 709.4 293.8C723 358.9 767.7 453 738.1 493.2C708.6 533.4 604.7 519.7 554.6 554.6C504.4 589.5 507.9 673 473.8 709.1C439.7 745.2 368.1 733.8 313.5 756.9C259 780 221.5 837.6 172.1 865.2C122.7 892.7 61.3 890.3 0 887.8L0 0Z" fill="#773d6b"></path><path d="M710.2 0C668.3 41.9 626.5 83.8 598.6 119.1C570.6 154.4 556.6 183.1 567.5 235.1C578.4 287.1 614.2 362.4 590.5 394.6C566.9 426.7 483.8 415.7 443.7 443.7C403.5 471.6 406.3 538.4 379.1 567.3C351.8 596.2 294.5 587.1 250.8 605.5C207.2 624 177.2 670.1 137.7 692.2C98.2 714.2 49.1 712.2 0 710.2L0 0Z" fill="#b34c6d"></path><path d="M532.7 0C501.3 31.4 469.9 62.8 448.9 89.3C428 115.8 417.5 137.3 425.6 176.3C433.8 215.3 460.6 271.8 442.9 295.9C425.1 320 362.8 311.8 332.7 332.7C302.6 353.7 304.7 403.8 284.3 425.5C263.8 447.1 220.9 440.3 188.1 454.2C155.4 468 132.9 502.6 103.3 519.1C73.6 535.6 36.8 534.2 0 532.7L0 0Z" fill="#e1685e"></path><path d="M355.1 0C334.2 20.9 313.2 41.9 299.3 59.5C285.3 77.2 278.3 91.5 283.8 117.5C289.2 143.5 307.1 181.2 295.3 197.3C283.4 213.4 241.9 207.9 221.8 221.8C201.8 235.8 203.2 269.2 189.5 283.6C175.9 298.1 147.2 293.5 125.4 302.8C103.6 312 88.6 335.1 68.8 346.1C49.1 357.1 24.5 356.1 0 355.1L0 0Z" fill="#f99447"></path><path d="M177.6 0C167.1 10.5 156.6 20.9 149.6 29.8C142.7 38.6 139.2 45.8 141.9 58.8C144.6 71.8 153.5 90.6 147.6 98.6C141.7 106.7 120.9 103.9 110.9 110.9C100.9 117.9 101.6 134.6 94.8 141.8C87.9 149 73.6 146.8 62.7 151.4C51.8 156 44.3 167.5 34.4 173C24.5 178.5 12.3 178.1 0 177.6L0 0Z" fill="#fbae3c"></path></g></svg>