<svg id="visual" viewBox="0 0 3000 1900" width="3000" height="1900" xmlns="http://www.w3.org/2000/svg" xmlns:xlink="http://www.w3.org/1999/xlink" version="1.1"><path d="M0 1443L429 1497L857 1485L1286 1497L1714 1458L2143 1469L2571 1528L3000 1453L3000 1901L2571 1901L2143 1901L1714 1901L1286 1901L857 1901L429 1901L0 1901Z" fill="#2ca0ff"></path><path d="M0 1522L429 1584L857 1533L1286 1511L1714 1564L2143 1518L2571 1506L3000 1531L3000 1901L2571 1901L2143 1901L1714 1901L1286 1901L857 1901L429 1901L0 1901Z" fill="#2385d2"></path><path d="M0 1606L429 1623L857 1626L1286 1582L1714 1564L2143 1625L2571 1600L3000 1588L3000 1901L2571 1901L2143 1901L1714 1901L1286 1901L857 1901L429 1901L0 1901Z" fill="#1d6ba7"></path><path d="M0 1641L429 1625L857 1642L1286 1664L1714 1678L2143 1655L2571 1677L3000 1630L3000 1901L2571 1901L2143 1901L1714 1901L1286 1901L857 1901L429 1901L0 1901Z" fill="#1a527e"></path><path d="M0 1736L429 1706L857 1710L1286 1702L1714 1715L2143 1729L2571 1724L3000 1707L3000 1901L2571 1901L2143 1901L1714 1901L1286 1901L857 1901L429 1901L0 1901Z" fill="#173a57"></path><path d="M0 1756L429 1781L857 1770L1286 1789L1714 1785L2143 1763L2571 1770L3000 1796L3000 1901L2571 1901L2143 1901L1714 1901L1286 1901L857 1901L429 1901L0 1901Z" fill="#122334"></path><path d="M0 1842L429 1830L857 1806L1286 1810L1714 1807L2143 1836L2571 1810L3000 1834L3000 1901L2571 1901L2143 1901L1714 1901L1286 1901L857 1901L429 1901L0 1901Z" fill="#050c13"></path></svg>