<svg id="visual" viewBox="0 0 3000 250" width="3000" height="250" xmlns="http://www.w3.org/2000/svg" xmlns:xlink="http://www.w3.org/1999/xlink" version="1.1"><path d="M0 117L29.3 119.5C58.7 122 117.3 127 176.2 127.3C235 127.7 294 123.3 352.8 112.7C411.7 102 470.3 85 529.2 70.7C588 56.3 647 44.7 705.8 67.8C764.7 91 823.3 149 882.2 146.3C941 143.7 1000 80.3 1058.8 67.3C1117.7 54.3 1176.3 91.7 1235.2 102.2C1294 112.7 1353 96.3 1411.8 96.2C1470.7 96 1529.3 112 1588.2 108.5C1647 105 1706 82 1764.8 75C1823.7 68 1882.3 77 1941.2 69.3C2000 61.7 2059 37.3 2117.8 44.8C2176.7 52.3 2235.3 91.7 2294.2 93.2C2353 94.7 2412 58.3 2470.8 46.2C2529.7 34 2588.3 46 2647.2 71.2C2706 96.3 2765 134.7 2823.8 154C2882.7 173.3 2941.3 173.7 2970.7 173.8L3000 174L3000 0L2970.7 0C2941.3 0 2882.7 0 2823.8 0C2765 0 2706 0 2647.2 0C2588.3 0 2529.7 0 2470.8 0C2412 0 2353 0 2294.2 0C2235.3 0 2176.7 0 2117.8 0C2059 0 2000 0 1941.2 0C1882.3 0 1823.7 0 1764.8 0C1706 0 1647 0 1588.2 0C1529.3 0 1470.7 0 1411.8 0C1353 0 1294 0 1235.2 0C1176.3 0 1117.7 0 1058.8 0C1000 0 941 0 882.2 0C823.3 0 764.7 0 705.8 0C647 0 588 0 529.2 0C470.3 0 411.7 0 352.8 0C294 0 235 0 176.2 0C117.3 0 58.7 0 29.3 0L0 0Z" fill="#0e2240" stroke-linecap="round" stroke-linejoin="miter"></path></svg>