<svg id="visual" viewBox="0 0 3000 500" width="3000" height="500" xmlns="http://www.w3.org/2000/svg" xmlns:xlink="http://www.w3.org/1999/xlink" version="1.1"><path d="M0 335L33.3 333.8C66.7 332.7 133.3 330.3 200 303.5C266.7 276.7 333.3 225.3 400 221.3C466.7 217.3 533.3 260.7 600 296.3C666.7 332 733.3 360 800 358.3C866.7 356.7 933.3 325.3 1000 306.8C1066.7 288.3 1133.3 282.7 1200 293.8C1266.7 305 1333.3 333 1400 315.7C1466.7 298.3 1533.3 235.7 1600 214.5C1666.7 193.3 1733.3 213.7 1800 212.5C1866.7 211.3 1933.3 188.7 2000 217.2C2066.7 245.7 2133.3 325.3 2200 341.2C2266.7 357 2333.3 309 2400 280.8C2466.7 252.7 2533.3 244.3 2600 267.7C2666.7 291 2733.3 346 2800 333.3C2866.7 320.7 2933.3 240.3 2966.7 200.2L3000 160L3000 501L2966.7 501C2933.3 501 2866.7 501 2800 501C2733.3 501 2666.7 501 2600 501C2533.3 501 2466.7 501 2400 501C2333.3 501 2266.7 501 2200 501C2133.3 501 2066.7 501 2000 501C1933.3 501 1866.7 501 1800 501C1733.3 501 1666.7 501 1600 501C1533.3 501 1466.7 501 1400 501C1333.3 501 1266.7 501 1200 501C1133.3 501 1066.7 501 1000 501C933.3 501 866.7 501 800 501C733.3 501 666.7 501 600 501C533.3 501 466.7 501 400 501C333.3 501 266.7 501 200 501C133.3 501 66.7 501 33.3 501L0 501Z" fill="#091e3e" stroke-linecap="round" stroke-linejoin="miter"></path></svg>