<svg id="visual" viewBox="0 0 3000 500" width="3000" height="500" xmlns="http://www.w3.org/2000/svg" xmlns:xlink="http://www.w3.org/1999/xlink" version="1.1"><path d="M0 257L33.3 271.5C66.7 286 133.3 315 200 314.8C266.7 314.7 333.3 285.3 400 274.8C466.7 264.3 533.3 272.7 600 266.3C666.7 260 733.3 239 800 239C866.7 239 933.3 260 1000 264.7C1066.7 269.3 1133.3 257.7 1200 227.2C1266.7 196.7 1333.3 147.3 1400 145.3C1466.7 143.3 1533.3 188.7 1600 220.2C1666.7 251.7 1733.3 269.3 1800 268.8C1866.7 268.3 1933.3 249.7 2000 217C2066.7 184.3 2133.3 137.7 2200 148.8C2266.7 160 2333.3 229 2400 247.3C2466.7 265.7 2533.3 233.3 2600 218C2666.7 202.7 2733.3 204.3 2800 217.8C2866.7 231.3 2933.3 256.7 2966.7 269.3L3000 282L3000 0L2966.7 0C2933.3 0 2866.7 0 2800 0C2733.3 0 2666.7 0 2600 0C2533.3 0 2466.7 0 2400 0C2333.3 0 2266.7 0 2200 0C2133.3 0 2066.7 0 2000 0C1933.3 0 1866.7 0 1800 0C1733.3 0 1666.7 0 1600 0C1533.3 0 1466.7 0 1400 0C1333.3 0 1266.7 0 1200 0C1133.3 0 1066.7 0 1000 0C933.3 0 866.7 0 800 0C733.3 0 666.7 0 600 0C533.3 0 466.7 0 400 0C333.3 0 266.7 0 200 0C133.3 0 66.7 0 33.3 0L0 0Z" fill="#091e3e" stroke-linecap="round" stroke-linejoin="miter"></path></svg>