<svg id="visual" viewBox="0 0 3000 400" width="3000" height="400" xmlns="http://www.w3.org/2000/svg" xmlns:xlink="http://www.w3.org/1999/xlink" version="1.1"><path d="M0 90L55.5 120.8C111 151.7 222 213.3 333.2 227.7C444.3 242 555.7 209 666.8 175.7C778 142.3 889 108.7 1000 115.8C1111 123 1222 171 1333.2 192C1444.3 213 1555.7 207 1666.8 209.7C1778 212.3 1889 223.7 2000 203.8C2111 184 2222 133 2333.2 127.8C2444.3 122.7 2555.7 163.3 2666.8 188.8C2778 214.3 2889 224.7 2944.5 229.8L3000 235L3000 0L2944.5 0C2889 0 2778 0 2666.8 0C2555.7 0 2444.3 0 2333.2 0C2222 0 2111 0 2000 0C1889 0 1778 0 1666.8 0C1555.7 0 1444.3 0 1333.2 0C1222 0 1111 0 1000 0C889 0 778 0 666.8 0C555.7 0 444.3 0 333.2 0C222 0 111 0 55.5 0L0 0Z" fill="#08121d" stroke-linecap="round" stroke-linejoin="miter"></path></svg>